<svg xmlns="http://www.w3.org/2000/svg" xmlns:xlink="http://www.w3.org/1999/xlink" version="1.1" x="0px" y="0px" viewBox="0 0 100 125" enable-background="new 0 0 100 100" xml:space="preserve"><g><circle cx="66.974" cy="26.766" r="3.854"/><circle cx="60.153" cy="17.882" r="4.012"/><circle cx="76.423" cy="42.312" r="3.854"/><circle cx="18.972" cy="33.428" r="3.814"/><circle cx="12.09" cy="41.994" r="3.853"/><path d="M33.721,8.357c2.47,0,4.474,2.001,4.474,4.474c0,2.467-2.004,4.471-4.474,4.471c-2.473,0-4.472-2.002-4.472-4.471   C29.249,10.359,31.249,8.357,33.721,8.357z"/><path d="M49.646,15.479c2.305,0,4.175,1.868,4.175,4.175c0,2.303-1.87,4.173-4.175,4.173c-2.308,0-4.174-1.868-4.174-4.173   C45.472,17.347,47.339,15.479,49.646,15.479z"/></g><g><path d="M82.418,85.146c-4.529-1.483-6.05-1.483-10.576,0c-4.659,1.533-6.511,1.533-11.233,0c-4.767-1.532-6.116-1.434-10.583,0   c-4.743,1.533-6.579,1.533-11.236,0c-4.535-1.483-6.046-1.483-10.582,0c-4.658,1.533-6.509,1.533-11.235,0   c-2.301-0.742-4.099-1.121-5.344-1.121c-1.172,0-2.932,0.379-5.24,1.121c-2.147,0.699-3.563,1.025-5.205,1.263v6.747l0.018,0.273   c0.795-0.43,2.587-0.808,4.897-1.55c4.854-1.573,6.58-1.485,11.174,0c4.477,1.44,5.837,1.54,10.586,0   c4.717-1.533,6.544-1.533,11.292,0c4.744,1.534,6.102,1.44,10.586,0c4.585-1.5,6.302-1.579,11.171,0   c4.454,1.44,5.816,1.534,10.586,0c4.724-1.533,6.574-1.533,11.232,0c2,0.661,3.624,1.027,4.842,1.104V86.33   C86.474,86.418,84.746,85.916,82.418,85.146z"/><path d="M82.418,73.481c-4.529-1.483-6.05-1.483-10.576,0c-4.659,1.533-6.511,1.533-11.233,0c-4.767-1.534-6.116-1.434-10.583,0   c-4.743,1.533-6.579,1.533-11.236,0c-4.535-1.483-6.046-1.483-10.582,0c-4.658,1.533-6.509,1.533-11.235,0   c-2.301-0.742-4.099-1.121-5.344-1.121c-1.172,0-2.932,0.379-5.24,1.121c-2.147,0.698-3.884,0.951-5.205,1.269v6.741l0.018,0.273   c0.795-0.43,2.587-0.809,4.897-1.55c4.854-1.573,6.58-1.486,11.174,0c4.477,1.439,5.837,1.54,10.586,0   c4.717-1.532,6.544-1.532,11.292,0c4.744,1.532,6.102,1.439,10.586,0c4.585-1.5,6.302-1.579,11.171,0   c4.454,1.439,5.816,1.532,10.586,0c4.724-1.532,6.574-1.532,11.232,0c2,0.661,3.624,1.027,4.842,1.104V74.83   C86.315,74.592,84.746,74.251,82.418,73.481z"/><path d="M67.293,39.706c-0.795,0-1.57-0.406-2.007-1.138c-0.662-1.107-0.301-2.542,0.807-3.203l12.985-7.757   c1.106-0.659,2.542-0.299,3.203,0.807c0.661,1.108,0.3,2.542-0.808,3.203l-12.984,7.757C68.113,39.599,67.7,39.706,67.293,39.706   L67.293,39.706z"/><path d="M25.642,23.374c-0.021,0.26,0.019,0.523,0.019,0.797l-0.014,15.58h0.056c6.99-3.125,13.713-5.377,16.681-6.319   l-0.005-9.261c0-2.562-1.943-4.638-4.34-4.638c0,0-9.45-0.042-9.6-0.024L15.974,6.726c-0.899-0.925-2.38-0.94-3.302-0.04   c-0.923,0.901-0.941,2.379-0.04,3.302L25.642,23.374z"/><path d="M61.081,39.16l-0.005-8.896c0-2.501-1.709-4.526-3.816-4.526h-7.967c-2.11,0-3.82,2.025-3.82,4.526l-0.003,3.082   C48.111,34.178,54.368,36.248,61.081,39.16z"/><path d="M81.007,51.539c0.485,0.329,4.687,3.365,2.592,8.461c-1.276,3.104-2.965,5.914-4.399,8.031   c0.751,0.182,1.578,0.428,2.548,0.749c1.782,0.594,3.291,0.97,4.321,0.901c1.277-2.068,2.604-4.499,3.692-7.148   c2.639-6.42,0.062-11.572-2.741-14.548l10.678-6.379c1.107-0.661,1.469-2.095,0.807-3.203c-0.66-1.107-2.095-1.467-3.203-0.807   L81.16,45.919c-0.059,0.035-0.12,0.065-0.177,0.104l-0.035,0.021c-0.158,0.094-0.264,0.19-0.343,0.289   c-0.19,0.177-0.367,0.37-0.519,0.596C79.076,48.451,79.493,50.514,81.007,51.539z"/><g><path d="M42.525,36.451C36.159,38.403,8.819,47.372,8.511,57.568c-0.06,1.912,1.8,6.059,3.945,10.154    c1.148,0.13,2.611,0.48,4.386,1.058c4.687,1.532,6.522,1.532,11.142,0c4.498-1.483,5.997-1.483,10.494,0    c1.609,0.533,2.876,0.877,4.046,1.039V36.451z"/><path d="M45.475,36.542v33.284c1.19-0.159,2.488-0.505,4.147-1.045c4.43-1.434,5.769-1.534,10.495,0    c4.684,1.532,6.521,1.532,11.142,0c1.621-0.536,2.852-0.875,3.975-1.023c2.153-4.106,4.023-8.271,3.965-10.188    C78.895,47.524,52.352,38.669,45.475,36.542z"/></g></g><text x="0" y="115" fill="#000000" font-size="5px" font-weight="bold" font-family="'Helvetica Neue', Helvetica, Arial-Unicode, Arial, Sans-serif">Created by Luis Prado</text><text x="0" y="120" fill="#000000" font-size="5px" font-weight="bold" font-family="'Helvetica Neue', Helvetica, Arial-Unicode, Arial, Sans-serif">from the Noun Project</text></svg>